<svg xmlns="http://www.w3.org/2000/svg" viewBox="0 0 320 240" role="img"
     aria-label="A packed row of heads and shoulders with a dozen speech bubbles going up from them all at once">
  <rect width="320" height="240" fill="#eef0f5"/>
  <!-- the crowd: heads and shoulders packed shoulder to shoulder -->
  <g fill="#7b8399">
    <path d="M9 240 L9 224 Q36 210 63 224 L63 240 Z"/><circle cx="36" cy="200" r="15"/>
    <path d="M57 240 L57 224 Q84 210 111 224 L111 240 Z"/><circle cx="84" cy="200" r="15"/>
    <path d="M105 240 L105 224 Q132 210 159 224 L159 240 Z"/><circle cx="132" cy="200" r="15"/>
    <path d="M153 240 L153 224 Q180 210 207 224 L207 240 Z"/><circle cx="180" cy="200" r="15"/>
    <path d="M201 240 L201 224 Q228 210 255 224 L255 240 Z"/><circle cx="228" cy="200" r="15"/>
    <path d="M249 240 L249 224 Q276 210 303 224 L303 240 Z"/><circle cx="276" cy="200" r="15"/>
  </g>
  <!-- everybody speaking at the same moment, some of them dissenting -->
    <g fill="#4f46e5"><rect x="27" y="137" width="46" height="30" rx="9"/><path d="M42 167 L58 167 L48 179 Z"/></g>
    <g fill="#4f46e5"><rect x="86" y="113" width="40" height="26" rx="9"/><path d="M98 139 L114 139 L104 151 Z"/></g>
    <g fill="#c0392f"><rect x="135" y="147" width="34" height="22" rx="9"/><path d="M144 169 L160 169 L150 181 Z"/></g>
    <g fill="#4f46e5"><rect x="146" y="87" width="48" height="30" rx="9"/><path d="M162 117 L178 117 L168 129 Z"/></g>
    <g fill="#4f46e5"><rect x="203" y="129" width="42" height="26" rx="9"/><path d="M216 155 L232 155 L222 167 Z"/></g>
    <g fill="#4f46e5"><rect x="250" y="102" width="36" height="24" rx="9"/><path d="M260 126 L276 126 L266 138 Z"/></g>
    <g fill="#4f46e5"><rect x="88" y="48" width="44" height="28" rx="9"/><path d="M102 76 L118 76 L108 88 Z"/></g>
    <g fill="#c0392f"><rect x="190" y="42" width="36" height="24" rx="9"/><path d="M200 66 L216 66 L206 78 Z"/></g>
    <g fill="#4f46e5"><rect x="241" y="62" width="30" height="20" rx="9"/><path d="M248 82 L264 82 L254 94 Z"/></g>
    <g fill="#4f46e5"><rect x="37" y="77" width="34" height="22" rx="9"/><path d="M46 99 L62 99 L52 111 Z"/></g>
</svg>
