<svg xmlns="http://www.w3.org/2000/svg" viewBox="0 0 320 240" role="img"
     aria-label="Bottle corks packed tightly together and running off every edge, their speckled bark surface filling the frame">
  <rect width="320" height="240" fill="#8a6a44"/>
  <g transform="translate(-35 -95) rotate(14)"><rect x="-30" y="-56" width="60" height="112" rx="7" fill="#d7b483" stroke="#a9834f" stroke-width="2"/><ellipse cx="0" cy="-56" rx="30" ry="9" fill="#e8cda6" stroke="#a9834f" stroke-width="2"/><ellipse cx="-18" cy="10" rx="3.3" ry="2.2" fill="#b08a56" opacity=".55"/><ellipse cx="-16" cy="-26" rx="3.3" ry="1.8" fill="#b08a56" opacity=".55"/><ellipse cx="-2" cy="-42" rx="2.3" ry="2.5" fill="#b08a56" opacity=".55"/><ellipse cx="-3" cy="3" rx="4.2" ry="2.0" fill="#b08a56" opacity=".55"/><ellipse cx="-19" cy="28" rx="3.8" ry="2.5" fill="#b08a56" opacity=".55"/><ellipse cx="5" cy="45" rx="3.1" ry="2.6" fill="#b08a56" opacity=".55"/><ellipse cx="-6" cy="9" rx="4.0" ry="1.9" fill="#b08a56" opacity=".55"/><ellipse cx="-18" cy="-0" rx="4.2" ry="2.3" fill="#b08a56" opacity=".55"/><ellipse cx="-2" cy="15" rx="2.5" ry="1.7" fill="#b08a56" opacity=".55"/></g>
  <g transform="translate(39 -98) rotate(-11)"><rect x="-30" y="-56" width="60" height="112" rx="7" fill="#d7b483" stroke="#a9834f" stroke-width="2"/><ellipse cx="0" cy="-56" rx="30" ry="9" fill="#e8cda6" stroke="#a9834f" stroke-width="2"/><ellipse cx="-17" cy="-35" rx="2.1" ry="1.8" fill="#b08a56" opacity=".55"/><ellipse cx="3" cy="32" rx="3.0" ry="2.0" fill="#b08a56" opacity=".55"/><ellipse cx="-9" cy="-16" rx="4.3" ry="2.3" fill="#b08a56" opacity=".55"/><ellipse cx="-11" cy="-34" rx="4.4" ry="2.5" fill="#b08a56" opacity=".55"/><ellipse cx="14" cy="-22" rx="3.6" ry="2.9" fill="#b08a56" opacity=".55"/><ellipse cx="4" cy="43" rx="2.5" ry="3.0" fill="#b08a56" opacity=".55"/><ellipse cx="-20" cy="-6" rx="2.1" ry="2.7" fill="#b08a56" opacity=".55"/><ellipse cx="8" cy="46" rx="4.4" ry="2.9" fill="#b08a56" opacity=".55"/><ellipse cx="2" cy="47" rx="4.2" ry="2.0" fill="#b08a56" opacity=".55"/></g>
  <g transform="translate(138 -106) rotate(-11)"><rect x="-30" y="-56" width="60" height="112" rx="7" fill="#d7b483" stroke="#a9834f" stroke-width="2"/><ellipse cx="0" cy="-56" rx="30" ry="9" fill="#e8cda6" stroke="#a9834f" stroke-width="2"/><ellipse cx="-19" cy="-1" rx="2.6" ry="2.9" fill="#b08a56" opacity=".55"/><ellipse cx="20" cy="-24" rx="2.3" ry="2.2" fill="#b08a56" opacity=".55"/><ellipse cx="-15" cy="6" rx="4.4" ry="1.8" fill="#b08a56" opacity=".55"/><ellipse cx="-3" cy="39" rx="3.3" ry="1.9" fill="#b08a56" opacity=".55"/><ellipse cx="17" cy="31" rx="4.7" ry="2.5" fill="#b08a56" opacity=".55"/><ellipse cx="-4" cy="20" rx="4.5" ry="2.4" fill="#b08a56" opacity=".55"/><ellipse cx="-12" cy="-17" rx="3.2" ry="2.6" fill="#b08a56" opacity=".55"/><ellipse cx="3" cy="7" rx="4.5" ry="1.6" fill="#b08a56" opacity=".55"/><ellipse cx="6" cy="-13" rx="3.7" ry="2.7" fill="#b08a56" opacity=".55"/></g>
  <g transform="translate(210 -95) rotate(-15)"><rect x="-30" y="-56" width="60" height="112" rx="7" fill="#d7b483" stroke="#a9834f" stroke-width="2"/><ellipse cx="0" cy="-56" rx="30" ry="9" fill="#e8cda6" stroke="#a9834f" stroke-width="2"/><ellipse cx="3" cy="6" rx="2.7" ry="2.3" fill="#b08a56" opacity=".55"/><ellipse cx="-1" cy="-3" rx="4.2" ry="1.4" fill="#b08a56" opacity=".55"/><ellipse cx="-5" cy="28" rx="2.4" ry="2.8" fill="#b08a56" opacity=".55"/><ellipse cx="-13" cy="19" rx="2.5" ry="2.1" fill="#b08a56" opacity=".55"/><ellipse cx="-3" cy="-36" rx="4.1" ry="2.2" fill="#b08a56" opacity=".55"/><ellipse cx="8" cy="6" rx="3.7" ry="2.2" fill="#b08a56" opacity=".55"/><ellipse cx="-9" cy="39" rx="2.3" ry="2.8" fill="#b08a56" opacity=".55"/><ellipse cx="16" cy="2" rx="4.3" ry="2.5" fill="#b08a56" opacity=".55"/><ellipse cx="5" cy="-17" rx="3.0" ry="2.0" fill="#b08a56" opacity=".55"/></g>
  <g transform="translate(297 -95) rotate(-6)"><rect x="-30" y="-56" width="60" height="112" rx="7" fill="#d7b483" stroke="#a9834f" stroke-width="2"/><ellipse cx="0" cy="-56" rx="30" ry="9" fill="#e8cda6" stroke="#a9834f" stroke-width="2"/><ellipse cx="-5" cy="-5" rx="4.4" ry="2.2" fill="#b08a56" opacity=".55"/><ellipse cx="2" cy="-20" rx="2.8" ry="1.5" fill="#b08a56" opacity=".55"/><ellipse cx="-12" cy="-20" rx="4.6" ry="2.2" fill="#b08a56" opacity=".55"/><ellipse cx="-17" cy="-1" rx="2.4" ry="2.3" fill="#b08a56" opacity=".55"/><ellipse cx="-3" cy="35" rx="2.8" ry="2.8" fill="#b08a56" opacity=".55"/><ellipse cx="-11" cy="46" rx="3.9" ry="1.5" fill="#b08a56" opacity=".55"/><ellipse cx="14" cy="-19" rx="3.1" ry="1.6" fill="#b08a56" opacity=".55"/><ellipse cx="15" cy="-36" rx="4.2" ry="2.0" fill="#b08a56" opacity=".55"/><ellipse cx="8" cy="-17" rx="2.2" ry="2.9" fill="#b08a56" opacity=".55"/></g>
  <g transform="translate(-83 -7) rotate(17)"><rect x="-30" y="-56" width="60" height="112" rx="7" fill="#d7b483" stroke="#a9834f" stroke-width="2"/><ellipse cx="0" cy="-56" rx="30" ry="9" fill="#e8cda6" stroke="#a9834f" stroke-width="2"/><ellipse cx="18" cy="-27" rx="2.1" ry="2.4" fill="#b08a56" opacity=".55"/><ellipse cx="-16" cy="23" rx="3.4" ry="2.5" fill="#b08a56" opacity=".55"/><ellipse cx="3" cy="27" rx="4.5" ry="2.4" fill="#b08a56" opacity=".55"/><ellipse cx="4" cy="-14" rx="2.4" ry="1.5" fill="#b08a56" opacity=".55"/><ellipse cx="16" cy="-25" rx="3.3" ry="1.9" fill="#b08a56" opacity=".55"/><ellipse cx="5" cy="5" rx="4.6" ry="2.1" fill="#b08a56" opacity=".55"/><ellipse cx="-6" cy="16" rx="4.2" ry="2.9" fill="#b08a56" opacity=".55"/><ellipse cx="-8" cy="38" rx="4.9" ry="3.0" fill="#b08a56" opacity=".55"/><ellipse cx="-16" cy="-9" rx="4.3" ry="2.7" fill="#b08a56" opacity=".55"/></g>
  <g transform="translate(-9 -2) rotate(8)"><rect x="-30" y="-56" width="60" height="112" rx="7" fill="#d7b483" stroke="#a9834f" stroke-width="2"/><ellipse cx="0" cy="-56" rx="30" ry="9" fill="#e8cda6" stroke="#a9834f" stroke-width="2"/><ellipse cx="11" cy="5" rx="2.6" ry="2.1" fill="#b08a56" opacity=".55"/><ellipse cx="-19" cy="-15" rx="3.3" ry="2.7" fill="#b08a56" opacity=".55"/><ellipse cx="4" cy="-6" rx="2.7" ry="1.9" fill="#b08a56" opacity=".55"/><ellipse cx="8" cy="-3" rx="2.5" ry="2.7" fill="#b08a56" opacity=".55"/><ellipse cx="3" cy="45" rx="3.6" ry="2.4" fill="#b08a56" opacity=".55"/><ellipse cx="-3" cy="12" rx="4.8" ry="3.0" fill="#b08a56" opacity=".55"/><ellipse cx="7" cy="-4" rx="2.2" ry="2.7" fill="#b08a56" opacity=".55"/><ellipse cx="-5" cy="-9" rx="2.2" ry="1.5" fill="#b08a56" opacity=".55"/><ellipse cx="-5" cy="46" rx="4.2" ry="2.5" fill="#b08a56" opacity=".55"/></g>
  <g transform="translate(89 -5) rotate(-12)"><rect x="-30" y="-56" width="60" height="112" rx="7" fill="#d7b483" stroke="#a9834f" stroke-width="2"/><ellipse cx="0" cy="-56" rx="30" ry="9" fill="#e8cda6" stroke="#a9834f" stroke-width="2"/><ellipse cx="5" cy="-38" rx="3.8" ry="2.2" fill="#b08a56" opacity=".55"/><ellipse cx="2" cy="-33" rx="2.2" ry="2.2" fill="#b08a56" opacity=".55"/><ellipse cx="-16" cy="15" rx="2.9" ry="2.4" fill="#b08a56" opacity=".55"/><ellipse cx="11" cy="12" rx="3.6" ry="1.7" fill="#b08a56" opacity=".55"/><ellipse cx="-7" cy="46" rx="2.8" ry="1.9" fill="#b08a56" opacity=".55"/><ellipse cx="-0" cy="6" rx="4.4" ry="1.9" fill="#b08a56" opacity=".55"/><ellipse cx="20" cy="-42" rx="4.4" ry="2.3" fill="#b08a56" opacity=".55"/><ellipse cx="18" cy="-30" rx="4.1" ry="2.9" fill="#b08a56" opacity=".55"/><ellipse cx="7" cy="-34" rx="4.8" ry="3.0" fill="#b08a56" opacity=".55"/></g>
  <g transform="translate(164 7) rotate(-15)"><rect x="-30" y="-56" width="60" height="112" rx="7" fill="#d7b483" stroke="#a9834f" stroke-width="2"/><ellipse cx="0" cy="-56" rx="30" ry="9" fill="#e8cda6" stroke="#a9834f" stroke-width="2"/><ellipse cx="-18" cy="29" rx="4.2" ry="2.9" fill="#b08a56" opacity=".55"/><ellipse cx="6" cy="3" rx="2.8" ry="2.3" fill="#b08a56" opacity=".55"/><ellipse cx="22" cy="15" rx="4.6" ry="1.7" fill="#b08a56" opacity=".55"/><ellipse cx="10" cy="23" rx="2.2" ry="2.7" fill="#b08a56" opacity=".55"/><ellipse cx="-14" cy="-24" rx="2.2" ry="2.5" fill="#b08a56" opacity=".55"/><ellipse cx="-16" cy="46" rx="2.0" ry="2.7" fill="#b08a56" opacity=".55"/><ellipse cx="11" cy="8" rx="3.7" ry="2.7" fill="#b08a56" opacity=".55"/><ellipse cx="6" cy="-31" rx="4.4" ry="2.0" fill="#b08a56" opacity=".55"/><ellipse cx="4" cy="3" rx="4.7" ry="2.1" fill="#b08a56" opacity=".55"/></g>
  <g transform="translate(265 -8) rotate(-6)"><rect x="-30" y="-56" width="60" height="112" rx="7" fill="#d7b483" stroke="#a9834f" stroke-width="2"/><ellipse cx="0" cy="-56" rx="30" ry="9" fill="#e8cda6" stroke="#a9834f" stroke-width="2"/><ellipse cx="8" cy="12" rx="4.5" ry="1.7" fill="#b08a56" opacity=".55"/><ellipse cx="13" cy="29" rx="2.4" ry="1.6" fill="#b08a56" opacity=".55"/><ellipse cx="4" cy="46" rx="3.8" ry="2.1" fill="#b08a56" opacity=".55"/><ellipse cx="0" cy="30" rx="3.6" ry="2.3" fill="#b08a56" opacity=".55"/><ellipse cx="4" cy="42" rx="4.4" ry="2.7" fill="#b08a56" opacity=".55"/><ellipse cx="-10" cy="11" rx="4.5" ry="2.5" fill="#b08a56" opacity=".55"/><ellipse cx="20" cy="40" rx="2.4" ry="2.2" fill="#b08a56" opacity=".55"/><ellipse cx="-6" cy="-25" rx="3.5" ry="3.0" fill="#b08a56" opacity=".55"/><ellipse cx="12" cy="-35" rx="2.7" ry="2.0" fill="#b08a56" opacity=".55"/></g>
  <g transform="translate(-35 103) rotate(-12)"><rect x="-30" y="-56" width="60" height="112" rx="7" fill="#d7b483" stroke="#a9834f" stroke-width="2"/><ellipse cx="0" cy="-56" rx="30" ry="9" fill="#e8cda6" stroke="#a9834f" stroke-width="2"/><ellipse cx="2" cy="-21" rx="2.1" ry="2.3" fill="#b08a56" opacity=".55"/><ellipse cx="22" cy="27" rx="4.2" ry="1.6" fill="#b08a56" opacity=".55"/><ellipse cx="3" cy="15" rx="4.3" ry="2.1" fill="#b08a56" opacity=".55"/><ellipse cx="-20" cy="41" rx="2.8" ry="2.6" fill="#b08a56" opacity=".55"/><ellipse cx="-2" cy="28" rx="3.0" ry="1.5" fill="#b08a56" opacity=".55"/><ellipse cx="-3" cy="0" rx="4.4" ry="2.0" fill="#b08a56" opacity=".55"/><ellipse cx="7" cy="-9" rx="4.2" ry="1.7" fill="#b08a56" opacity=".55"/><ellipse cx="17" cy="43" rx="2.1" ry="2.8" fill="#b08a56" opacity=".55"/><ellipse cx="12" cy="20" rx="2.3" ry="2.6" fill="#b08a56" opacity=".55"/></g>
  <g transform="translate(48 107) rotate(17)"><rect x="-30" y="-56" width="60" height="112" rx="7" fill="#d7b483" stroke="#a9834f" stroke-width="2"/><ellipse cx="0" cy="-56" rx="30" ry="9" fill="#e8cda6" stroke="#a9834f" stroke-width="2"/><ellipse cx="20" cy="14" rx="4.8" ry="1.6" fill="#b08a56" opacity=".55"/><ellipse cx="-9" cy="5" rx="3.6" ry="2.9" fill="#b08a56" opacity=".55"/><ellipse cx="6" cy="13" rx="3.9" ry="2.9" fill="#b08a56" opacity=".55"/><ellipse cx="-4" cy="24" rx="3.8" ry="2.0" fill="#b08a56" opacity=".55"/><ellipse cx="-7" cy="-30" rx="2.0" ry="1.9" fill="#b08a56" opacity=".55"/><ellipse cx="-9" cy="-37" rx="3.5" ry="2.0" fill="#b08a56" opacity=".55"/><ellipse cx="19" cy="28" rx="4.0" ry="2.8" fill="#b08a56" opacity=".55"/><ellipse cx="-10" cy="-33" rx="3.8" ry="1.8" fill="#b08a56" opacity=".55"/><ellipse cx="21" cy="-5" rx="4.7" ry="1.8" fill="#b08a56" opacity=".55"/></g>
  <g transform="translate(121 107) rotate(7)"><rect x="-30" y="-56" width="60" height="112" rx="7" fill="#d7b483" stroke="#a9834f" stroke-width="2"/><ellipse cx="0" cy="-56" rx="30" ry="9" fill="#e8cda6" stroke="#a9834f" stroke-width="2"/><ellipse cx="-11" cy="41" rx="4.9" ry="2.5" fill="#b08a56" opacity=".55"/><ellipse cx="21" cy="46" rx="2.4" ry="2.6" fill="#b08a56" opacity=".55"/><ellipse cx="11" cy="23" rx="3.0" ry="2.3" fill="#b08a56" opacity=".55"/><ellipse cx="4" cy="34" rx="2.2" ry="2.0" fill="#b08a56" opacity=".55"/><ellipse cx="-8" cy="29" rx="2.3" ry="1.5" fill="#b08a56" opacity=".55"/><ellipse cx="-17" cy="-33" rx="3.3" ry="2.8" fill="#b08a56" opacity=".55"/><ellipse cx="-6" cy="-35" rx="4.0" ry="1.9" fill="#b08a56" opacity=".55"/><ellipse cx="3" cy="25" rx="3.4" ry="2.6" fill="#b08a56" opacity=".55"/><ellipse cx="5" cy="34" rx="4.3" ry="2.8" fill="#b08a56" opacity=".55"/></g>
  <g transform="translate(220 100) rotate(0)"><rect x="-30" y="-56" width="60" height="112" rx="7" fill="#d7b483" stroke="#a9834f" stroke-width="2"/><ellipse cx="0" cy="-56" rx="30" ry="9" fill="#e8cda6" stroke="#a9834f" stroke-width="2"/><ellipse cx="12" cy="28" rx="4.2" ry="2.7" fill="#b08a56" opacity=".55"/><ellipse cx="14" cy="6" rx="3.9" ry="1.5" fill="#b08a56" opacity=".55"/><ellipse cx="-1" cy="23" rx="4.7" ry="2.8" fill="#b08a56" opacity=".55"/><ellipse cx="-3" cy="-23" rx="4.7" ry="2.5" fill="#b08a56" opacity=".55"/><ellipse cx="-14" cy="-41" rx="4.6" ry="2.3" fill="#b08a56" opacity=".55"/><ellipse cx="-17" cy="47" rx="3.8" ry="2.6" fill="#b08a56" opacity=".55"/><ellipse cx="13" cy="-20" rx="3.6" ry="1.7" fill="#b08a56" opacity=".55"/><ellipse cx="5" cy="-4" rx="4.4" ry="1.6" fill="#b08a56" opacity=".55"/><ellipse cx="-13" cy="-8" rx="2.0" ry="2.1" fill="#b08a56" opacity=".55"/></g>
  <g transform="translate(310 111) rotate(-12)"><rect x="-30" y="-56" width="60" height="112" rx="7" fill="#d7b483" stroke="#a9834f" stroke-width="2"/><ellipse cx="0" cy="-56" rx="30" ry="9" fill="#e8cda6" stroke="#a9834f" stroke-width="2"/><ellipse cx="15" cy="-23" rx="2.7" ry="2.4" fill="#b08a56" opacity=".55"/><ellipse cx="-9" cy="-25" rx="2.3" ry="1.7" fill="#b08a56" opacity=".55"/><ellipse cx="-14" cy="40" rx="2.1" ry="2.3" fill="#b08a56" opacity=".55"/><ellipse cx="-13" cy="22" rx="2.0" ry="2.0" fill="#b08a56" opacity=".55"/><ellipse cx="10" cy="-42" rx="3.2" ry="1.9" fill="#b08a56" opacity=".55"/><ellipse cx="-1" cy="14" rx="2.2" ry="2.8" fill="#b08a56" opacity=".55"/><ellipse cx="-10" cy="27" rx="2.4" ry="1.6" fill="#b08a56" opacity=".55"/><ellipse cx="-13" cy="-36" rx="2.7" ry="1.6" fill="#b08a56" opacity=".55"/><ellipse cx="-18" cy="34" rx="3.6" ry="2.2" fill="#b08a56" opacity=".55"/></g>
  <g transform="translate(-86 214) rotate(-16)"><rect x="-30" y="-56" width="60" height="112" rx="7" fill="#d7b483" stroke="#a9834f" stroke-width="2"/><ellipse cx="0" cy="-56" rx="30" ry="9" fill="#e8cda6" stroke="#a9834f" stroke-width="2"/><ellipse cx="-20" cy="17" rx="2.0" ry="2.2" fill="#b08a56" opacity=".55"/><ellipse cx="5" cy="34" rx="2.0" ry="2.0" fill="#b08a56" opacity=".55"/><ellipse cx="-8" cy="9" rx="2.1" ry="2.6" fill="#b08a56" opacity=".55"/><ellipse cx="20" cy="6" rx="4.0" ry="2.7" fill="#b08a56" opacity=".55"/><ellipse cx="15" cy="31" rx="3.5" ry="1.5" fill="#b08a56" opacity=".55"/><ellipse cx="13" cy="34" rx="4.1" ry="1.9" fill="#b08a56" opacity=".55"/><ellipse cx="21" cy="13" rx="2.9" ry="2.7" fill="#b08a56" opacity=".55"/><ellipse cx="-12" cy="-22" rx="4.7" ry="1.5" fill="#b08a56" opacity=".55"/><ellipse cx="16" cy="-7" rx="3.7" ry="2.5" fill="#b08a56" opacity=".55"/></g>
  <g transform="translate(8 202) rotate(-15)"><rect x="-30" y="-56" width="60" height="112" rx="7" fill="#d7b483" stroke="#a9834f" stroke-width="2"/><ellipse cx="0" cy="-56" rx="30" ry="9" fill="#e8cda6" stroke="#a9834f" stroke-width="2"/><ellipse cx="1" cy="-23" rx="3.3" ry="1.6" fill="#b08a56" opacity=".55"/><ellipse cx="-18" cy="8" rx="2.2" ry="1.8" fill="#b08a56" opacity=".55"/><ellipse cx="-5" cy="-35" rx="4.4" ry="2.8" fill="#b08a56" opacity=".55"/><ellipse cx="-21" cy="30" rx="2.5" ry="2.6" fill="#b08a56" opacity=".55"/><ellipse cx="-19" cy="25" rx="4.8" ry="1.8" fill="#b08a56" opacity=".55"/><ellipse cx="-15" cy="-13" rx="4.6" ry="2.6" fill="#b08a56" opacity=".55"/><ellipse cx="-15" cy="39" rx="4.2" ry="2.9" fill="#b08a56" opacity=".55"/><ellipse cx="21" cy="-29" rx="4.2" ry="1.4" fill="#b08a56" opacity=".55"/><ellipse cx="-14" cy="5" rx="2.7" ry="1.7" fill="#b08a56" opacity=".55"/></g>
  <g transform="translate(83 207) rotate(15)"><rect x="-30" y="-56" width="60" height="112" rx="7" fill="#d7b483" stroke="#a9834f" stroke-width="2"/><ellipse cx="0" cy="-56" rx="30" ry="9" fill="#e8cda6" stroke="#a9834f" stroke-width="2"/><ellipse cx="4" cy="7" rx="4.2" ry="1.7" fill="#b08a56" opacity=".55"/><ellipse cx="13" cy="26" rx="4.4" ry="2.1" fill="#b08a56" opacity=".55"/><ellipse cx="2" cy="-37" rx="3.4" ry="2.4" fill="#b08a56" opacity=".55"/><ellipse cx="20" cy="38" rx="3.0" ry="2.6" fill="#b08a56" opacity=".55"/><ellipse cx="16" cy="44" rx="4.0" ry="1.9" fill="#b08a56" opacity=".55"/><ellipse cx="16" cy="-43" rx="3.7" ry="2.1" fill="#b08a56" opacity=".55"/><ellipse cx="17" cy="13" rx="2.6" ry="1.7" fill="#b08a56" opacity=".55"/><ellipse cx="-20" cy="25" rx="4.3" ry="2.0" fill="#b08a56" opacity=".55"/><ellipse cx="-12" cy="7" rx="2.6" ry="2.2" fill="#b08a56" opacity=".55"/></g>
  <g transform="translate(169 204) rotate(7)"><rect x="-30" y="-56" width="60" height="112" rx="7" fill="#d7b483" stroke="#a9834f" stroke-width="2"/><ellipse cx="0" cy="-56" rx="30" ry="9" fill="#e8cda6" stroke="#a9834f" stroke-width="2"/><ellipse cx="-11" cy="-14" rx="3.7" ry="2.9" fill="#b08a56" opacity=".55"/><ellipse cx="-15" cy="-16" rx="2.8" ry="1.9" fill="#b08a56" opacity=".55"/><ellipse cx="-1" cy="31" rx="2.5" ry="2.6" fill="#b08a56" opacity=".55"/><ellipse cx="-3" cy="9" rx="3.5" ry="2.4" fill="#b08a56" opacity=".55"/><ellipse cx="-14" cy="13" rx="3.2" ry="2.7" fill="#b08a56" opacity=".55"/><ellipse cx="4" cy="-6" rx="5.0" ry="1.7" fill="#b08a56" opacity=".55"/><ellipse cx="-21" cy="-33" rx="4.1" ry="1.5" fill="#b08a56" opacity=".55"/><ellipse cx="10" cy="-36" rx="2.9" ry="2.4" fill="#b08a56" opacity=".55"/><ellipse cx="-21" cy="-4" rx="5.0" ry="2.6" fill="#b08a56" opacity=".55"/></g>
  <g transform="translate(256 216) rotate(2)"><rect x="-30" y="-56" width="60" height="112" rx="7" fill="#d7b483" stroke="#a9834f" stroke-width="2"/><ellipse cx="0" cy="-56" rx="30" ry="9" fill="#e8cda6" stroke="#a9834f" stroke-width="2"/><ellipse cx="14" cy="-12" rx="3.1" ry="2.5" fill="#b08a56" opacity=".55"/><ellipse cx="11" cy="20" rx="2.5" ry="2.1" fill="#b08a56" opacity=".55"/><ellipse cx="-8" cy="-23" rx="2.3" ry="2.6" fill="#b08a56" opacity=".55"/><ellipse cx="-16" cy="-11" rx="2.1" ry="2.5" fill="#b08a56" opacity=".55"/><ellipse cx="6" cy="-37" rx="4.9" ry="3.0" fill="#b08a56" opacity=".55"/><ellipse cx="11" cy="30" rx="4.1" ry="1.4" fill="#b08a56" opacity=".55"/><ellipse cx="-10" cy="-22" rx="2.1" ry="2.4" fill="#b08a56" opacity=".55"/><ellipse cx="4" cy="-11" rx="4.2" ry="1.8" fill="#b08a56" opacity=".55"/><ellipse cx="-10" cy="-33" rx="2.7" ry="2.8" fill="#b08a56" opacity=".55"/></g>
  <g transform="translate(-43 317) rotate(13)"><rect x="-30" y="-56" width="60" height="112" rx="7" fill="#d7b483" stroke="#a9834f" stroke-width="2"/><ellipse cx="0" cy="-56" rx="30" ry="9" fill="#e8cda6" stroke="#a9834f" stroke-width="2"/><ellipse cx="7" cy="-11" rx="4.9" ry="1.5" fill="#b08a56" opacity=".55"/><ellipse cx="-4" cy="37" rx="4.0" ry="2.0" fill="#b08a56" opacity=".55"/><ellipse cx="14" cy="26" rx="4.2" ry="1.8" fill="#b08a56" opacity=".55"/><ellipse cx="8" cy="16" rx="4.5" ry="2.2" fill="#b08a56" opacity=".55"/><ellipse cx="19" cy="22" rx="2.6" ry="2.3" fill="#b08a56" opacity=".55"/><ellipse cx="-13" cy="13" rx="3.0" ry="3.0" fill="#b08a56" opacity=".55"/><ellipse cx="-7" cy="29" rx="4.5" ry="2.0" fill="#b08a56" opacity=".55"/><ellipse cx="4" cy="-23" rx="3.1" ry="2.1" fill="#b08a56" opacity=".55"/><ellipse cx="9" cy="3" rx="2.5" ry="2.4" fill="#b08a56" opacity=".55"/></g>
  <g transform="translate(43 313) rotate(-2)"><rect x="-30" y="-56" width="60" height="112" rx="7" fill="#d7b483" stroke="#a9834f" stroke-width="2"/><ellipse cx="0" cy="-56" rx="30" ry="9" fill="#e8cda6" stroke="#a9834f" stroke-width="2"/><ellipse cx="16" cy="16" rx="4.0" ry="2.2" fill="#b08a56" opacity=".55"/><ellipse cx="-4" cy="-5" rx="4.0" ry="2.1" fill="#b08a56" opacity=".55"/><ellipse cx="-19" cy="-24" rx="2.2" ry="1.5" fill="#b08a56" opacity=".55"/><ellipse cx="-6" cy="-9" rx="3.4" ry="1.7" fill="#b08a56" opacity=".55"/><ellipse cx="-12" cy="-3" rx="2.9" ry="1.8" fill="#b08a56" opacity=".55"/><ellipse cx="-0" cy="26" rx="2.2" ry="1.4" fill="#b08a56" opacity=".55"/><ellipse cx="-2" cy="38" rx="3.9" ry="2.0" fill="#b08a56" opacity=".55"/><ellipse cx="21" cy="18" rx="4.5" ry="2.7" fill="#b08a56" opacity=".55"/><ellipse cx="-20" cy="-26" rx="4.4" ry="2.0" fill="#b08a56" opacity=".55"/></g>
  <g transform="translate(137 303) rotate(16)"><rect x="-30" y="-56" width="60" height="112" rx="7" fill="#d7b483" stroke="#a9834f" stroke-width="2"/><ellipse cx="0" cy="-56" rx="30" ry="9" fill="#e8cda6" stroke="#a9834f" stroke-width="2"/><ellipse cx="5" cy="-6" rx="4.5" ry="2.3" fill="#b08a56" opacity=".55"/><ellipse cx="-2" cy="-27" rx="4.4" ry="1.6" fill="#b08a56" opacity=".55"/><ellipse cx="-9" cy="-36" rx="2.0" ry="1.9" fill="#b08a56" opacity=".55"/><ellipse cx="-20" cy="-1" rx="3.0" ry="1.4" fill="#b08a56" opacity=".55"/><ellipse cx="-2" cy="-18" rx="2.7" ry="2.3" fill="#b08a56" opacity=".55"/><ellipse cx="-7" cy="-39" rx="4.8" ry="3.0" fill="#b08a56" opacity=".55"/><ellipse cx="-12" cy="17" rx="3.8" ry="1.8" fill="#b08a56" opacity=".55"/><ellipse cx="2" cy="-20" rx="2.8" ry="2.1" fill="#b08a56" opacity=".55"/><ellipse cx="-20" cy="-23" rx="5.0" ry="2.6" fill="#b08a56" opacity=".55"/></g>
  <g transform="translate(212 322) rotate(-6)"><rect x="-30" y="-56" width="60" height="112" rx="7" fill="#d7b483" stroke="#a9834f" stroke-width="2"/><ellipse cx="0" cy="-56" rx="30" ry="9" fill="#e8cda6" stroke="#a9834f" stroke-width="2"/><ellipse cx="15" cy="-14" rx="4.7" ry="2.1" fill="#b08a56" opacity=".55"/><ellipse cx="16" cy="-31" rx="3.2" ry="2.0" fill="#b08a56" opacity=".55"/><ellipse cx="12" cy="36" rx="2.4" ry="2.1" fill="#b08a56" opacity=".55"/><ellipse cx="-14" cy="-38" rx="2.4" ry="1.5" fill="#b08a56" opacity=".55"/><ellipse cx="-9" cy="-4" rx="4.7" ry="2.4" fill="#b08a56" opacity=".55"/><ellipse cx="11" cy="-14" rx="3.0" ry="2.1" fill="#b08a56" opacity=".55"/><ellipse cx="-12" cy="-42" rx="2.8" ry="2.9" fill="#b08a56" opacity=".55"/><ellipse cx="-20" cy="2" rx="2.7" ry="2.6" fill="#b08a56" opacity=".55"/><ellipse cx="-20" cy="3" rx="4.2" ry="2.1" fill="#b08a56" opacity=".55"/></g>
  <g transform="translate(294 320) rotate(-17)"><rect x="-30" y="-56" width="60" height="112" rx="7" fill="#d7b483" stroke="#a9834f" stroke-width="2"/><ellipse cx="0" cy="-56" rx="30" ry="9" fill="#e8cda6" stroke="#a9834f" stroke-width="2"/><ellipse cx="19" cy="31" rx="4.7" ry="2.8" fill="#b08a56" opacity=".55"/><ellipse cx="-6" cy="14" rx="3.4" ry="2.3" fill="#b08a56" opacity=".55"/><ellipse cx="-5" cy="35" rx="2.9" ry="2.3" fill="#b08a56" opacity=".55"/><ellipse cx="-19" cy="-39" rx="4.7" ry="2.0" fill="#b08a56" opacity=".55"/><ellipse cx="-6" cy="47" rx="4.2" ry="1.6" fill="#b08a56" opacity=".55"/><ellipse cx="2" cy="0" rx="3.8" ry="1.8" fill="#b08a56" opacity=".55"/><ellipse cx="-10" cy="43" rx="3.8" ry="2.3" fill="#b08a56" opacity=".55"/><ellipse cx="8" cy="25" rx="2.5" ry="2.7" fill="#b08a56" opacity=".55"/><ellipse cx="-1" cy="-30" rx="2.9" ry="3.0" fill="#b08a56" opacity=".55"/></g>
</svg>
